<?xml version="1.0" encoding="UTF-8" standalone="no"?>
<!-- Created with Inkscape (http://www.inkscape.org/) -->

<svg
   xmlns:dc="http://purl.org/dc/elements/1.1/"
   xmlns:cc="http://creativecommons.org/ns#"
   xmlns:rdf="http://www.w3.org/1999/02/22-rdf-syntax-ns#"
   xmlns:svg="http://www.w3.org/2000/svg"
   xmlns="http://www.w3.org/2000/svg"
   xmlns:sodipodi="http://sodipodi.sourceforge.net/DTD/sodipodi-0.dtd"
   xmlns:inkscape="http://www.inkscape.org/namespaces/inkscape"
   width="245.55475mm"
   height="227.56125mm"
   viewBox="0 0 245.55475 227.56125"
   version="1.1"
   id="svg8"
   sodipodi:docname="silhouette.svg"
   inkscape:version="0.92.3 (2405546, 2018-03-11)">
  <defs
     id="defs2" />
  <sodipodi:namedview
     id="base"
     pagecolor="#ffffff"
     bordercolor="#666666"
     borderopacity="1.0"
     inkscape:pageopacity="0.0"
     inkscape:pageshadow="2"
     inkscape:zoom="0.41691919"
     inkscape:cx="543.23278"
     inkscape:cy="329.4396"
     inkscape:document-units="mm"
     inkscape:current-layer="layer1"
     showgrid="false"
     showborder="true"
     inkscape:snap-global="true"
     inkscape:window-width="1280"
     inkscape:window-height="705"
     inkscape:window-x="-8"
     inkscape:window-y="-8"
     inkscape:window-maximized="1" />
  <metadata
     id="metadata5">
    <rdf:RDF>
      <cc:Work
         rdf:about="">
        <dc:format>image/svg+xml</dc:format>
        <dc:type
           rdf:resource="http://purl.org/dc/dcmitype/StillImage" />
        <dc:title></dc:title>
      </cc:Work>
    </rdf:RDF>
  </metadata>
  <g
     inkscape:label="Layer 1"
     inkscape:groupmode="layer"
     id="layer1"
     transform="translate(-36.471584,-84.256826)">
    <path
       inkscape:connector-curvature="0"
       id="path910"
       d="M 52.250154,281.2205 V 261.074 l 1.84635,-2.34308 c 2.31002,-2.93149 10.12757,-12.42586 13.059669,-15.86089 1.21204,-1.41994 3.12643,-3.72181 4.25421,-5.11528 1.12778,-1.39346 3.02368,-3.52122 4.21313,-4.72833 1.85557,-1.88315 2.61626,-2.36976 5.35782,-3.4274 3.9459,-1.52224 10.394171,-3.39085 17.129931,-4.96398 2.813406,-0.65707 5.772536,-1.51584 6.575856,-1.90837 2.1108,-1.03143 4.14296,-1.42181 7.45241,-1.43159 2.55657,-0.008 3.14326,-0.13557 4.7625,-1.03914 1.01571,-0.56679 2.55845,-1.21788 3.42833,-1.44687 0.86988,-0.22899 2.31284,-0.7869 3.20658,-1.23979 1.34872,-0.68345 1.73331,-1.1122 2.26213,-2.52189 1.00333,-2.67458 2.10853,-4.72641 3.65312,-6.78207 l 1.42857,-1.90125 -0.99296,-1.44645 c -2.10979,-3.07332 -4.35622,-8.16243 -5.36336,-12.1503 -0.55725,-2.20643 -1.01606,-4.43132 -1.01959,-4.9442 -0.004,-0.51288 -0.46988,-1.61634 -1.03634,-2.45214 -0.56646,-0.83581 -1.3777,-2.58206 -1.80277,-3.88056 -0.42506,-1.2985 -1.66527,-4.18319 -2.75602,-6.41041 l -1.98317,-4.04949 0.0249,-3.85103 0.0249,-3.85103 1.12716,-1.00711 c 0.83996,-0.75052 1.48526,-1.00712 2.53269,-1.00712 1.698,0 1.83544,-0.6045 0.52736,-2.31949 -0.60086,-0.78776 -1.00311,-1.96804 -1.27377,-3.73746 -0.21758,-1.42236 -0.60404,-3.22111 -0.8588,-3.99722 -0.88842,-2.70647 -1.18412,-5.07715 -1.21007,-9.70139 -0.005,-0.87312 -0.15465,-1.81262 -0.33276,-2.08777 -0.21101,-0.32596 -0.1516,-0.76317 0.17049,-1.25475 0.2719,-0.41496 0.56716,-1.98222 0.65614,-3.4828 0.089,-1.50057 0.40832,-3.22251 0.70965,-3.82653 0.30132,-0.60402 0.54786,-1.68939 0.54786,-2.41193 0,-0.73737 0.23215,-1.50638 0.52917,-1.75288 0.29104,-0.24155 0.52916,-0.65333 0.52916,-0.91508 0,-1.1719 2.47717,-5.79541 3.91801,-7.31278 0.27044,-0.2848 0.88859,-1.03457 1.37366,-1.66614 0.48507,-0.63158 2.50913,-2.82335 4.49792,-4.87061 1.98878,-2.04726 3.61597,-3.85462 3.61597,-4.01638 0,-0.16175 0.67469,-0.60835 1.4993,-0.99245 1.66272,-0.77447 2.79702,-1.44958 6.4382,-3.83189 1.35819,-0.88862 3.02507,-1.86701 3.70417,-2.1742 0.67909,-0.30718 1.99303,-0.90308 2.91985,-1.324218 0.92682,-0.42113 1.95993,-0.7657 2.2958,-0.7657 0.33587,0 2.03818,-0.49112 3.78292,-1.09138 2.86591,-0.98599 3.4448,-1.07071 5.99448,-0.87729 11.39144,0.86417 16.9881,3.249848 28.38137,12.098088 3.06557,2.38078 4.77244,4.08358 6.80637,6.79014 0.80764,1.07473 1.91236,2.38167 2.45493,2.90431 0.54258,0.52263 0.9865,1.2767 0.9865,1.67569 0,0.39899 0.31384,1.03928 0.69742,1.42287 0.7488,0.74879 1.77202,2.93742 1.77202,3.79025 0,0.28654 0.21906,1.02121 0.48681,1.63262 0.26774,0.6114 0.69466,2.06415 0.94871,3.22831 0.25405,1.16417 0.69168,2.67229 0.97251,3.35139 0.28082,0.6791 0.55816,2.42535 0.61629,3.88056 0.0581,1.45521 0.12666,3.12208 0.15227,3.70416 0.0256,0.58209 -0.13436,2.48709 -0.35549,4.23334 -0.22114,1.74625 -0.5295,4.445 -0.68525,5.99722 -0.31855,3.17478 -0.84599,5.3245 -1.82333,7.43152 -0.87979,1.89673 -0.85728,2.40237 0.0958,2.15312 1.21096,-0.31668 3.05952,0.63724 3.331,1.7189 0.51105,2.03619 -0.2016,7.16272 -1.48515,10.6836 -0.68429,1.87707 -1.56743,4.36536 -1.96254,5.52953 -1.21114,3.56864 -2.66585,6.47777 -3.74837,7.49598 -0.76782,0.7222 -1.13627,1.51961 -1.43934,3.11505 -0.83071,4.37316 -3.02149,9.9773 -5.84814,14.9599 -1.17928,2.07876 -1.13497,2.65569 0.32836,4.27543 1.48871,1.64782 3.34027,5.27295 4.39578,8.60642 1.26581,3.99763 1.47019,4.40972 2.18706,4.40972 0.36715,0 0.9432,0.15377 1.28012,0.34172 1.44818,0.80785 5.86477,2.48082 6.55854,2.48432 1.40049,0.007 4.0944,1.01171 7.98931,2.97946 2.51359,1.26988 4.30676,1.95561 5.11391,1.95561 3.84058,0 13.39464,3.16362 19.93276,6.60031 3.0892,1.6238 6.12341,4.24672 7.46425,6.45247 0.41281,0.67909 2.22137,3.45722 4.01902,6.17361 1.79765,2.71639 4.0231,6.36764 4.94544,8.11389 0.92233,1.74625 2.38739,4.445 3.25568,5.99722 0.86828,1.55222 2.66826,4.9957 3.99993,7.65216 l 2.42124,4.82994 v 12.89715 12.89714 H 158.08349 52.250154 Z"
       style="fill:#555;stroke-width:0.35277778" />
    <path
       inkscape:connector-curvature="0"
       id="path904"
       d="m -58.952306,292.95788 c 0.0963,-0.43656 0.43331,-2.38125 0.74892,-4.32153 0.58298,-3.5839 1.13103,-5.24385 0.73724,-2.23292 -0.11852,0.90621 -0.32246,2.93027 -0.4532,4.49792 -0.17249,2.06828 -0.37081,2.85028 -0.72287,2.85028 -0.31983,0 -0.4255,-0.2705 -0.31009,-0.79375 z m -165.107374,-5.53031 c -2.5331,-3.7827 -4.15314,-10.19191 -2.84962,-11.27374 0.45338,-0.37627 0.90217,-0.38664 2.293,-0.053 1.61573,0.38761 1.74338,0.50007 1.94388,1.71267 0.28713,1.73651 0.23541,9.97226 -0.067,10.67238 -0.18376,0.42541 -0.49223,0.17814 -1.32024,-1.05833 z m 78.57074,-44.56414 c -1.35051,-1.9532 -5.55565,-5.98898 -7.0372,-6.75379 -1.33623,-0.68979 -5.54884,-3.42902 -7.74939,-5.039 -0.82602,-0.60434 -2.55241,-1.51937 -3.83642,-2.0334 -3.81689,-1.528 -5.50375,-3.22714 -7.61789,-7.67333 -0.99699,-2.09676 -1.94253,-3.81228 -2.10119,-3.81228 -0.15866,0 -0.28847,-0.31252 -0.28847,-0.69449 0,-0.48227 0.16705,-0.63038 0.54668,-0.4847 0.43965,0.16871 0.40302,-0.0658 -0.18711,-1.19802 -1.8689,-3.58557 -1.46836,-9.42648 0.95448,-13.91875 l 0.89296,-1.65568 -1.65549,-2.57765 c -3.26531,-5.08417 -4.70219,-8.52371 -5.71909,-13.69016 -0.65379,-3.3216 -1.17789,-5.0827 -1.73228,-5.82083 -0.43719,-0.58208 -1.37241,-2.60701 -2.07827,-4.49983 -0.70585,-1.89282 -1.99078,-4.7939 -2.8554,-6.44683 l -1.57204,-3.00533 v -3.84056 -3.84056 l 1.11542,-0.93856 c 0.99092,-0.83381 1.3059,-0.91236 2.82222,-0.70382 0.93874,0.12912 1.70681,0.13722 1.70681,0.018 0,-0.11921 -0.62865,-1.52317 -1.39699,-3.11991 -0.84157,-1.74891 -1.53037,-3.81485 -1.73247,-5.19622 -0.18451,-1.26118 -0.56618,-3.24556 -0.84815,-4.40973 -0.97521,-4.02629 -0.62153,-13.57698 0.66219,-17.88156 0.27126,-0.90958 0.49319,-2.10814 0.49319,-2.66347 0,-0.55533 0.13911,-1.1605 0.30912,-1.34483 0.17002,-0.18432 0.64948,-1.36701 1.06548,-2.62819 0.96818,-2.93525 3.47096,-6.3169 8.9373,-12.07567 3.0492,-3.21232 4.97529,-4.91732 6.76508,-5.988532 1.37621,-0.82366 3.45469,-2.107196 4.61886,-2.852286 2.43454,-1.55817 7.77629,-4.13072 8.57717,-4.13072 0.2981,0 1.67654,-0.39159 3.0632,-0.8702 4.43164,-1.5296 9.9076,-1.40381 16.93463,0.389 2.41455,0.61603 6.60498,2.37216 7.99196,3.34928 0.51502,0.36283 1.10944,0.65969 1.32094,0.65969 0.78181,0 10.84711,7.653478 12.99054,9.877778 1.72595,1.79108 5.08101,6.16929 6.0363,7.87714 0.4527,0.80931 1.0409,1.71424 1.30712,2.01096 0.26622,0.29672 0.74385,1.48734 1.0614,2.64583 2.61359,9.53499 3.15549,13.57036 2.62784,19.56885 -0.19627,2.23132 -0.41939,5.00945 -0.49583,6.17361 -0.0764,1.16417 -0.31332,2.56356 -0.52642,3.10977 -0.2131,0.54621 -0.38746,1.30898 -0.38746,1.69505 0,0.38607 -0.3059,1.37343 -0.67977,2.19413 -0.37388,0.82071 -0.78796,1.92325 -0.92019,2.4501 -0.23548,0.93822 -0.20702,0.9579 1.38532,0.9579 1.17198,0 1.8289,0.20315 2.3536,0.72785 0.661034,0.66103 0.706304,0.99303 0.493054,3.61597 -0.296754,3.65 -0.688344,5.48443 -1.742694,8.16381 -0.46156,1.17295 -1.42149,3.72014 -2.13317,5.66042 -1.54551,4.21358 -2.74624,6.40164 -3.6747,6.69632 -0.49695,0.15773 -0.79236,0.7645 -1.08485,2.22827 -1.01991,5.10426 -3.11476,10.8401 -5.30627,14.52896 -1.70757,2.87426 -1.85643,4.73383 -0.5193,6.4869 1.29856,1.7025 1.86506,3.30934 2.13595,6.05844 0.26066,2.64525 -0.23285,4.51513 -1.57743,5.97685 -0.35939,0.39071 -1.99811,3.4885 -3.64159,6.88399 -1.64348,3.39548 -3.36591,6.51395 -3.82764,6.92993 -0.46172,0.41598 -2.36471,1.37985 -4.22888,2.14192 -1.86416,0.76208 -4.08734,1.79463 -4.9404,2.29456 -1.61617,0.94714 -6.31016,4.97385 -10.91026,9.35928 -1.47556,1.4067 -2.78287,2.55764 -2.90514,2.55764 -0.12227,0 -0.68881,-0.67469 -1.25897,-1.49931 z m -0.98537,-74.1737 c 0.55575,-0.28984 1.23044,-0.52699 1.4993,-0.52699 0.26886,0 0.48884,-0.15875 0.48884,-0.35278 0,-0.19403 -0.23491,-0.35278 -0.52202,-0.35278 -0.8133,0 -3.35853,1.09843 -3.35853,1.44942 0,0.46503 0.74965,0.37912 1.89241,-0.21687 z m -18.82575,-15.69644 c 0,-0.19402 -0.16812,-0.35277 -0.3736,-0.35277 -0.20547,0 -0.27548,0.15875 -0.15556,0.35277 0.11991,0.19403 0.28803,0.35278 0.37359,0.35278 0.0856,0 0.15557,-0.15875 0.15557,-0.35278 z m 35.49092,-0.96279 c -0.35861,-0.3586 -0.65449,0.18129 -0.36026,0.65736 0.22226,0.35963 0.30535,0.35991 0.42485,0.001 0.0817,-0.2451 0.0526,-0.54155 -0.0646,-0.65878 z m 17.19208,81.59458 c 0.1971,-0.51363 0.68789,-2.39524 1.08696,-4.1672 0.14267,-0.63348 0.44682,-0.97014 0.87647,-0.97014 1.06482,0 6.12344,2.6879 7.2276,3.84039 l 1.01645,1.06095 -0.92373,0.23184 c -0.50806,0.12752 -1.42648,0.0566 -2.04094,-0.15761 -1.52137,-0.53036 -4.06987,-0.46421 -5.77442,0.14988 -1.74238,0.62771 -1.70459,0.62741 -1.46839,0.0119 z m -72.81536,-1.91523 c 0.38272,-0.75021 1.07264,-1.82177 1.53315,-2.38125 0.4605,-0.55949 1.3487,-1.77111 1.97377,-2.69249 1.37964,-2.03365 2.75827,-2.80962 4.73589,-2.6656 1.38599,0.10093 1.52637,0.21314 2.29362,1.83337 0.4495,0.94922 0.68903,1.8437 0.5323,1.98774 -0.9657,0.88743 -3.99358,2.10723 -5.23076,2.10723 -1.45064,0 -2.26886,0.41219 -4.32691,2.17976 -0.63734,0.54738 -1.39463,0.99524 -1.68286,0.99524 -0.43395,0 -0.4044,-0.23456 0.1718,-1.364 z"
       style="fill:#707070;stroke-width:0.35277778" />
    <path
       inkscape:connector-curvature="0"
       id="path902"
       d="m 5.83615,373.60989 c 0.0963,-0.43656 0.43331,-2.38125 0.74892,-4.32153 0.58298,-3.5839 1.13103,-5.24385 0.73724,-2.23292 -0.11852,0.90621 -0.32246,2.93027 -0.4532,4.49792 -0.17249,2.06828 -0.37081,2.85028 -0.72287,2.85028 -0.31983,0 -0.4255,-0.2705 -0.31009,-0.79375 z m -165.10737,-5.53031 c -2.5331,-3.7827 -4.15314,-10.19191 -2.84962,-11.27374 0.45338,-0.37627 0.90217,-0.38664 2.293,-0.053 1.61573,0.38761 1.74338,0.50007 1.94388,1.71267 0.28713,1.73651 0.23541,9.97226 -0.067,10.67238 -0.18376,0.42541 -0.49223,0.17814 -1.32024,-1.05833 z m 78.40053,-44.91691 c -1.61377,-2.50184 -4.82897,-5.47365 -7.82285,-7.23068 -1.3582,-0.79708 -3.50132,-2.17698 -4.7625,-3.06644 -2.45821,-1.73367 -6.33218,-3.7258 -7.24532,-3.7258 -0.30691,0 -1.43876,-0.83296 -2.51521,-1.85103 -1.51225,-1.43022 -2.31318,-2.61282 -3.52313,-5.20204 -1.04305,-2.23207 -1.49816,-3.62107 -1.36296,-4.15975 0.1123,-0.44747 -0.0694,-1.38262 -0.4067,-2.09351 -0.33532,-0.70663 -0.61768,-1.69272 -0.62748,-2.19131 -0.01,-0.49859 -0.1991,-0.87256 -0.42067,-0.83104 -0.41556,0.0779 -0.49971,-0.57314 -0.46579,-3.60327 0.0345,-3.08701 1.68367,-7.75674 2.87256,-8.13408 0.8692,-0.27588 0.8085,-0.8056 -0.27507,-2.40021 -0.50434,-0.74221 -1.43615,-2.4887 -2.07068,-3.88109 -0.63454,-1.39239 -1.41252,-2.74642 -1.72885,-3.00895 -0.31633,-0.26254 -0.5701,-0.65633 -0.56393,-0.87511 0.006,-0.21878 0.24489,-0.0888 0.53049,0.28882 0.7307,0.96614 1.4626,0.24542 0.87181,-0.8585 -0.38324,-0.71609 -0.35133,-0.75814 0.40829,-0.53796 1.25543,0.36388 2.45303,1.32432 3.09877,2.4851 0.32034,0.57584 0.93116,1.60261 1.35739,2.28171 0.42622,0.67909 0.77907,1.79034 0.78412,2.46944 0.005,0.6791 0.3196,1.6316 0.69903,2.11667 0.37942,0.48507 0.69339,1.05628 0.6977,1.26936 0.004,0.21308 0.68254,1.15793 1.50716,2.09966 2.76069,3.15277 4.56714,4.74487 5.3837,4.74487 0.4386,0 1.25216,0.23714 1.80791,0.52699 1.27247,0.66364 2.55611,0.67676 3.27575,0.0335 0.48153,-0.43042 0.98683,-0.3946 3.73194,0.26459 2.67325,0.64193 4.12398,0.75461 9.17996,0.71302 3.35495,-0.0276 6.62427,-0.23002 7.40833,-0.45869 1.33608,-0.38967 5.98978,-1.02724 8.63532,-1.18307 0.6791,-0.04 1.9491,-0.53623 2.82223,-1.10273 3.52855,-2.28939 4.14388,-2.71443 4.79204,-3.3101 0.77256,-0.70998 3.11171,-2.18629 3.46409,-2.18629 0.12945,0 0.071,0.30706 -0.12983,0.68236 -0.20086,0.3753 -0.35001,1.60561 -0.33146,2.73403 l 0.0337,2.05166 0.55737,-1.67569 c 0.30656,-0.92163 0.76564,-1.67569 1.02018,-1.67569 0.92086,0 2.31278,2.86732 2.68719,5.53556 0.42757,3.04702 0.0392,4.79777 -1.4537,6.55292 -0.53362,0.62738 -2.22351,3.79895 -3.75529,7.04794 -1.53179,3.24899 -3.19146,6.27642 -3.68817,6.72762 -0.4967,0.4512 -2.09372,1.26968 -3.54893,1.81882 -1.45521,0.54916 -3.52571,1.43645 -4.60112,1.97176 -2.1704,1.08039 -7.85247,5.74886 -12.10381,9.94468 -1.52362,1.50372 -2.82842,2.73403 -2.89958,2.73403 -0.0711,0 -0.66696,-0.83344 -1.32402,-1.85208 z m 33.04209,-8.88558 c 0.1971,-0.51363 0.68789,-2.39524 1.08696,-4.1672 0.14267,-0.63348 0.44682,-0.97014 0.87647,-0.97014 1.06482,0 6.12344,2.6879 7.2276,3.84039 l 1.01645,1.06095 -0.92373,0.23184 c -0.50806,0.12752 -1.42648,0.0566 -2.04094,-0.15761 -1.52137,-0.53036 -4.06987,-0.46421 -5.77442,0.14988 -1.74238,0.62771 -1.70459,0.62741 -1.46839,0.0119 z m -72.92701,-1.69776 c 0.75159,-1.46552 3.56473,-5.40183 4.75691,-6.65616 0.98117,-1.03233 2.9397,-1.5848 4.35706,-1.22907 0.60253,0.15123 1.09249,0.72328 1.5977,1.86539 0.40077,0.90599 0.60606,1.75949 0.4562,1.89664 -0.95997,0.8786 -3.9895,2.09473 -5.21825,2.09473 -1.45064,0 -2.26886,0.41219 -4.32691,2.17976 -0.63734,0.54738 -1.39548,0.99524 -1.68476,0.99524 -0.45335,0 -0.44478,-0.15825 0.062,-1.14653 z m 38.6622,-32.38073 c -0.63853,-0.14091 -1.47542,-0.54078 -1.85974,-0.88858 -0.38433,-0.34781 -1.51681,-0.96184 -2.51665,-1.36452 -2.02612,-0.81601 -2.28001,-1.16105 -1.56943,-2.13283 0.54762,-0.74892 1.08967,-0.77916 11.25194,-0.62767 l 5.90903,0.0881 v 1.17219 c 0,1.03103 -0.18522,1.26469 -1.53795,1.94028 -0.84587,0.42245 -2.12375,0.76809 -2.83974,0.76809 -0.71599,0 -1.73047,0.21573 -2.25442,0.4794 -1.28054,0.64442 -3.16942,0.87752 -4.58304,0.56556 z m 29.16713,-1.62194 c -0.48068,-0.57918 -0.51305,-0.69325 -0.61214,-2.15705 -0.0297,-0.43844 -0.28565,-0.79375 -0.57183,-0.79375 -0.31429,0 -0.43866,0.20699 -0.31617,0.52619 0.25511,0.66481 -0.83315,1.1225 -1.37667,0.57898 -0.21979,-0.21979 -0.66685,-0.39961 -0.99347,-0.39961 -0.32662,0 -0.67688,-0.3175 -0.77836,-0.70556 -0.20503,-0.78403 -1.3089,-0.9789 -1.3089,-0.23107 0,0.26097 -0.30447,0.75004 -0.67661,1.08682 -0.6581,0.59557 -0.68257,0.55604 -0.8945,-1.44463 -0.60465,-5.70834 -0.49337,-5.538 -2.93814,-4.49718 -0.72137,0.30711 -2.13247,0.63348 -3.13579,0.72525 -1.7404,0.15921 -1.81487,0.13117 -1.62102,-0.61014 0.19852,-0.7591 0.1515,-0.77115 -2.04118,-0.52308 -1.23441,0.13966 -2.80683,0.49633 -3.49426,0.79259 -0.68744,0.29627 -2.59926,0.62178 -4.2485,0.72335 -2.58007,0.1589 -3.40738,0.0555 -5.92724,-0.74084 -1.61074,-0.50903 -3.21849,-0.92551 -3.57278,-0.92551 -0.35428,0 -0.84177,-0.23813 -1.08331,-0.52917 -0.4588,-0.55281 -1.64318,-0.68872 -2.64656,-0.30369 -0.45877,0.17605 -0.4866,0.28791 -0.12694,0.51019 0.35819,0.22137 0.32713,0.33595 -0.13958,0.51505 -0.3326,0.12763 -1.28234,-0.0999 -2.12996,-0.51019 -0.84135,-0.40729 -2.15429,-0.74269 -2.91765,-0.74534 -2.25426,-0.008 -2.9223,-0.32734 -3.39028,-1.62154 -0.23784,-0.65773 -0.63867,-1.19587 -0.89074,-1.19587 -0.55741,0 -0.59884,-1.19488 -0.0754,-2.17304 0.21063,-0.39355 1.07718,-1.02264 1.92567,-1.39796 0.84849,-0.37534 1.63804,-0.83665 1.75454,-1.02516 0.1165,-0.1885 0.65926,-0.34273 1.20614,-0.34273 0.54687,0 1.19194,-0.23812 1.43349,-0.52917 0.24154,-0.29104 0.6668,-0.52916 0.94502,-0.52916 0.73065,0 2.51774,-2.07593 2.76801,-3.21537 0.13465,-0.61306 0.007,-1.28847 -0.34661,-1.82746 -0.30812,-0.47024 -0.46397,-1.10577 -0.34635,-1.4123 0.36963,-0.96323 1.87463,-1.08441 10.91465,-0.87888 0.77611,0.0176 2.28423,-0.13417 3.35139,-0.33737 1.47526,-0.2809 2.27846,-0.25937 3.35139,0.0898 1.79712,0.5849 7.62648,0.51821 8.36588,-0.0957 0.62491,-0.51886 1.06093,-0.14641 1.65366,1.4126 0.31434,0.82676 0.24012,1.03293 -0.59695,1.65812 -0.52576,0.39268 -1.11468,0.88694 -1.30871,1.09836 -0.19402,0.21142 -0.73103,0.76778 -1.19334,1.23638 -0.68052,0.68977 -0.75893,0.95034 -0.41182,1.36858 0.2358,0.28412 0.32586,0.84071 0.20013,1.23686 -0.1773,0.55861 -0.10376,0.67236 0.32766,0.5068 0.30594,-0.1174 1.36756,0.0519 2.35914,0.37624 0.99158,0.32433 2.00056,0.51383 2.24216,0.42112 0.60707,-0.23295 3.9347,1.40533 4.18633,2.06104 0.26472,0.68987 0.9328,0.69369 0.9328,0.005 0,-0.59908 0.55243,-0.70956 0.88194,-0.17639 0.41066,0.66445 0.91815,0.35229 1.43385,-0.88194 0.35965,-0.86075 0.74248,-1.23473 1.26399,-1.23473 1.21837,0 3.42522,0.77051 3.6137,1.26172 0.3643,0.94933 0.27718,7.79926 -0.11771,9.25639 -0.31315,1.15546 -0.31419,1.82031 -0.004,2.7592 0.35841,1.08599 0.30708,1.42759 -0.42059,2.79926 -0.87083,1.64153 -1.65248,1.95497 -2.4572,0.98534 z m -1.33553,-5.69389 c 0.0198,-0.14054 0.0884,-1.25601 0.15251,-2.47883 0.10799,-2.05915 0.054,-2.25182 -0.73101,-2.6095 -1.467,-0.66842 -1.92684,0.10235 -1.92684,3.22971 0,1.49613 0.0995,2.81973 0.22111,2.94134 0.24963,0.24964 2.22885,-0.68851 2.28423,-1.08272 z m -23.31923,-6.523 c 3.1903,0.15695 4.73937,0.0534 5.22985,-0.34953 0.2936,-0.2412 1.34042,-0.43855 2.32629,-0.43855 1.34512,0 1.79247,-0.12994 1.79247,-0.52067 0,-0.66231 -0.99138,-0.9352 -4.93889,-1.35948 -2.49371,-0.26803 -3.47779,-0.2365 -4.58611,0.14695 -1.83094,0.63346 -2.56934,0.62079 -5.11814,-0.0878 -1.73229,-0.48162 -2.64935,-0.52692 -5.13569,-0.25372 -2.58469,0.28402 -3.07115,0.25372 -3.33023,-0.20743 -0.25241,-0.44928 -0.47039,-0.35594 -1.29717,0.55548 -0.54658,0.60253 -1.2319,1.1853 -1.52294,1.29506 -0.29104,0.10976 1.10936,0.21209 3.11201,0.22741 2.75453,0.0211 3.77136,0.15805 4.17582,0.56251 0.3867,0.38669 1.21342,0.52071 2.98729,0.48424 1.34895,-0.0277 2.5578,0.0548 2.68633,0.1833 0.12854,0.12853 0.71761,0.11396 1.30905,-0.0324 0.59143,-0.14635 1.63096,-0.23875 2.31006,-0.20534 z m -4.23333,-4.64781 c 0,-0.27959 -0.17259,-0.61501 -0.38352,-0.74538 -0.49813,-0.30786 -1.17807,0.37208 -0.8702,0.87021 0.34579,0.55951 1.25372,0.46911 1.25372,-0.12483 z m 5.08613,0.20271 c 0.10389,-0.16809 -0.10465,-0.57128 -0.46343,-0.89597 -0.51185,-0.46322 -0.61413,-0.92916 -0.47497,-2.16382 0.16572,-1.47019 0.12225,-1.57397 -0.66227,-1.58121 -0.4618,-0.004 -1.51074,-0.3124 -2.33098,-0.68475 -0.82024,-0.37235 -1.57036,-0.54915 -1.66693,-0.39289 -0.0966,0.15626 0.21734,1.09861 0.69759,2.09412 0.48026,0.99552 0.87319,1.99674 0.87319,2.22495 0,0.90015 1.18184,1.7052 2.5033,1.7052 0.73459,0 1.42061,-0.13753 1.5245,-0.30563 z m -11.69563,-0.6108 c 0.31801,-0.31801 -0.11987,-1.22544 -0.48302,-1.001 -0.1737,0.10735 -0.31582,0.42394 -0.31582,0.70353 0,0.5195 0.4203,0.67601 0.79884,0.29747 z m -2.56273,-1.20023 c 0,-0.19403 -0.16812,-0.35278 -0.3736,-0.35278 -0.20547,0 -0.27548,0.15875 -0.15556,0.35278 0.11991,0.19402 0.28803,0.35277 0.3736,0.35277 0.0856,0 0.15556,-0.15875 0.15556,-0.35277 z m 5.92667,-0.0706 c 0.23283,-0.23283 0.42333,-0.55033 0.42333,-0.70555 0,-0.51979 -0.53133,-0.28943 -0.97646,0.42333 -0.48241,0.77246 -0.12133,0.95668 0.55313,0.28222 z m -1.27,-2.46944 c -0.32926,-0.32926 -0.42333,-0.23519 -0.42333,0.42333 0,0.65852 0.0941,0.75259 0.42333,0.42333 0.32926,-0.32925 0.32926,-0.5174 0,-0.84666 z m 0.21105,-2.18803 c -0.15162,-1.05604 -1.33617,-1.15123 -2.07855,-0.16703 -0.60825,0.80636 -0.60144,0.83211 0.32323,1.22291 1.14257,0.48288 1.90998,0.0213 1.75532,-1.05588 z m 14.88784,0.55349 c 0,-0.49645 -0.39713,-0.72519 -0.91441,-0.52669 -0.27096,0.10398 -0.40482,0.33116 -0.29747,0.50486 0.24623,0.3984 1.21188,0.4158 1.21188,0.0218 z m 29.06734,0.0294 c 0.11921,-0.72761 0.39121,-4.10104 0.60445,-7.49653 0.39773,-6.33327 0.32363,-7.59365 -0.93332,-15.875 -0.27977,-1.84326 -0.68421,-5.07466 -0.89875,-7.18087 -0.43163,-4.23744 -1.01931,-6.06222 -2.0586,-6.39208 -0.37906,-0.12031 -0.73894,-0.56842 -0.79974,-0.99581 -0.18639,-1.31021 -1.08959,-0.87179 -1.67485,0.81298 l -0.55236,1.59005 -1.3739,-0.45112 c -1.38168,-0.45368 -2.85505,-0.29408 -2.50556,0.27141 0.10325,0.16706 -0.29132,0.58674 -0.87682,0.9326 -0.58551,0.34587 -1.06456,0.72212 -1.06456,0.83612 0,0.114 0.94539,0.87398 2.10088,1.68884 2.19864,1.55053 2.51481,2.17278 2.55003,5.01858 0.0224,1.81007 0.002,1.8396 -0.84885,1.24347 -0.83347,-0.58378 -2.39095,-0.7486 -2.39095,-0.25301 0,0.16288 0.38924,0.4735 0.86498,0.69026 0.47574,0.21676 1.11481,0.87724 1.42017,1.46774 0.30536,0.5905 0.78924,1.07363 1.0753,1.07363 0.32078,0 0.52011,0.3409 0.52011,0.88951 0,1.43521 -1.27799,1.79916 -4.44753,1.26659 -2.47224,-0.41542 -2.73611,-0.39669 -4.0483,0.28726 -1.64558,0.85772 -2.97696,0.92203 -4.81439,0.23254 -1.97929,-0.74273 -3.04391,-0.91721 -3.57892,-0.58655 -0.67801,0.41904 2.35206,1.35823 5.33265,1.6529 3.02227,0.29879 3.68501,0.92958 2.21129,2.10468 -0.56879,0.45355 -0.94441,0.91438 -0.83471,1.02408 0.1097,0.10971 1.51463,0.43069 3.12205,0.7133 3.30493,0.58107 4.94119,1.19672 4.94119,1.85915 0,0.4936 -1.54182,1.19693 -2.43748,1.1119 -1.33025,-0.12629 -2.41296,0.062 -3.05134,0.53079 -0.66103,0.48536 -0.65082,0.51578 0.29439,0.87664 1.11197,0.42454 1.59279,1.30496 1.02356,1.87419 -0.48008,0.48008 -4.14573,0.39901 -5.43059,-0.12009 -0.52713,-0.21297 -1.04286,-0.6533 -1.14608,-0.97852 -0.10322,-0.32521 -1.14037,-1.04375 -2.30479,-1.59675 -1.16441,-0.553 -2.11711,-1.22234 -2.11711,-1.48743 0,-1.20372 -1.41527,-1.94042 -4.0366,-2.1012 l -2.57533,-0.15795 -0.26909,1.15317 c -0.14801,0.63425 -0.23322,2.06599 -0.18936,3.18165 0.0584,1.48693 -0.0466,2.03823 -0.39369,2.065 -2.44086,0.18834 -7.42663,0.13348 -8.42332,-0.0927 -0.69144,-0.1569 -1.72554,-0.79689 -2.32088,-1.43634 -0.92036,-0.98855 -1.2653,-1.76936 -2.10698,-4.76931 -0.15492,-0.55216 -3.30916,-0.58722 -5.21524,-0.058 -1.62093,0.45007 -2.40266,0.003 -1.7645,-1.00835 0.6788,-1.07613 -0.39987,-1.47426 -2.48784,-0.91824 -2.32633,0.61949 -3.04906,0.60589 -4.02216,-0.0757 -0.63532,-0.44499 -0.71554,-0.66377 -0.38808,-1.05834 0.22704,-0.27355 0.72611,-0.49738 1.10905,-0.49738 0.38294,0 1.59185,-0.26035 2.68646,-0.57856 1.62173,-0.47145 1.85542,-0.62843 1.26221,-0.84787 -0.40039,-0.14812 -1.46041,-0.13247 -2.35559,0.0348 -0.89519,0.16724 -2.78813,0.24054 -4.20653,0.16288 -1.41841,-0.0777 -3.57609,-0.15044 -4.79485,-0.16176 -2.69688,-0.025 -3.02277,-0.50099 -1.70572,-2.49118 1.16176,-1.75554 1.15557,-2.04187 -0.0471,-2.18026 -0.83133,-0.0957 -0.98523,-0.29115 -1.07556,-1.36627 -0.058,-0.69005 0.0571,-1.68217 0.25579,-2.2047 0.38946,-1.02436 2.2665,-2.35803 3.32176,-2.36017 0.35746,-7e-4 1.05355,-0.31882 1.54688,-0.70687 1.07936,-0.84903 2.29656,-0.88603 5.11566,-0.15553 1.69426,0.43903 2.58793,0.47759 4.42833,0.19106 1.26814,-0.19743 2.47107,-0.52432 2.67316,-0.72642 0.37785,-0.37785 6.19403,-0.50796 7.46291,-0.16695 0.79083,0.21254 1.93565,1.97251 1.93565,2.97574 0,0.4296 0.41816,0.78761 1.23472,1.0571 1.57656,0.52031 1.57656,1.24358 0,1.76389 -0.67909,0.22412 -1.23472,0.6119 -1.23472,0.86172 0,0.24983 -0.3327,0.87719 -0.73932,1.39414 -0.70639,0.89802 -0.71258,0.98072 -0.13897,1.85617 0.55196,0.8424 0.74315,0.89936 2.37145,0.70651 0.9741,-0.11537 2.14229,-0.45299 2.596,-0.75026 0.4537,-0.29728 1.22178,-0.54051 1.70685,-0.54051 0.87764,0 1.61233,-0.85767 1.61233,-1.88223 0,-0.28464 -0.55563,-0.84534 -1.23473,-1.24602 -1.35815,-0.80133 -1.48096,-1.261 -0.73533,-2.75218 0.27467,-0.5493 0.66449,-1.42728 0.86627,-1.95105 0.26614,-0.69086 0.73437,-1.0421 1.70547,-1.27934 1.59188,-0.3889 11.4046,-1.25396 13.12762,-1.1573 2.05671,0.11538 3.29146,-0.29554 3.09904,-1.03136 -0.10154,-0.3883 0.16718,-0.96182 0.67358,-1.43755 1.06536,-1.00086 1.06567,-1.37408 10e-4,-1.37408 -0.50818,0 -1.07022,-0.34926 -1.41925,-0.88194 -0.56876,-0.86805 -0.65231,-0.88195 -5.30056,-0.88195 -4.50008,0 -4.82671,-0.0492 -6.92927,-1.04354 -2.07653,-0.98205 -2.77761,-1.54924 -2.79026,-2.25739 -0.003,-0.16628 0.22764,-0.21291 0.51246,-0.1036 0.76121,0.2921 0.96191,-0.29212 0.47072,-1.37018 -0.36656,-0.80451 -0.34192,-1.01252 0.16377,-1.38229 0.54394,-0.39774 0.52283,-0.47403 -0.24491,-0.88491 -0.46209,-0.2473 -1.01405,-0.34217 -1.22658,-0.21082 -0.21244,0.13134 -0.38633,0.0707 -0.38633,-0.13479 0,-0.20548 0.15127,-0.3736 0.33616,-0.3736 0.19606,0 0.24909,-0.73513 0.12725,-1.76389 -0.13403,-1.13165 -0.0758,-1.76389 0.16236,-1.76389 0.25358,0 0.24464,-0.33549 -0.0282,-1.05833 -0.32479,-0.86046 -0.60268,-1.05834 -1.4863,-1.05834 -0.59776,0 -1.23764,-0.14203 -1.42197,-0.31563 -0.19285,-0.18163 -1.22869,-0.19015 -2.43985,-0.0201 -1.1576,0.16255 -2.26885,0.16236 -2.46945,-3.5e-4 -0.2006,-0.16279 -1.16792,-0.29418 -2.1496,-0.29199 -1.08087,0.002 -2.37138,-0.27939 -3.27185,-0.71445 -1.2829,-0.61983 -1.7884,-0.67546 -3.68318,-0.40535 -1.20791,0.17219 -2.97737,0.54917 -3.93212,0.83771 -0.95476,0.28855 -1.85105,0.45348 -1.99176,0.36652 -0.14071,-0.087 -0.70892,0.0782 -1.26269,0.36701 -0.55377,0.28881 -1.24613,0.52609 -1.53857,0.52729 -0.41645,0.002 -0.50462,0.3654 -0.40677,1.67787 0.13747,1.84373 0.60949,2.66981 1.08546,1.89966 0.2051,-0.33184 0.36696,-0.35762 0.5353,-0.0852 0.13272,0.21474 0.0732,0.39044 -0.13229,0.39044 -0.64641,0 -0.40772,0.96365 0.50834,2.05233 0.48507,0.57647 0.88195,1.30303 0.88195,1.61457 0,0.33125 0.29295,0.56643 0.70555,0.56643 0.74944,0 0.97343,0.55747 0.31252,0.77777 -0.21618,0.0721 -0.33342,0.44066 -0.26054,0.8191 0.12649,0.65679 0.16977,0.65083 0.95161,-0.13101 0.95708,-0.95707 1.36604,-0.803 0.69989,0.26368 -0.27371,0.43827 -0.83017,0.73991 -1.365,0.73991 -0.98728,0 -1.74663,0.56332 -1.60345,1.18951 0.05,0.21889 0.0244,0.27892 -0.057,0.1334 -0.30473,-0.54489 -1.14751,-0.23866 -1.14751,0.41695 0,0.61683 -1.05295,1.58281 -2.99129,2.74422 -1.46953,0.8805 -1.70098,0.91658 -2.12856,0.33182 -0.38313,-0.52397 -0.48149,-0.53042 -0.87413,-0.0573 -0.57957,0.69835 -1.05568,0.67357 -1.61938,-0.0843 -0.36956,-0.49684 -0.58376,-0.53768 -1.09723,-0.20922 -0.35091,0.22448 -0.58713,0.61529 -0.52492,0.86847 0.13327,0.54241 -0.88877,1.36922 -1.69253,1.36922 -0.30945,0 -1.06705,-0.65629 -1.68355,-1.45843 -0.86698,-1.12804 -1.04392,-1.6023 -0.78105,-2.09348 0.43118,-0.80576 0.42832,-1.03428 -0.0129,-1.03428 -0.19403,0 -0.35278,0.16518 -0.35278,0.36706 0,0.20189 -0.34544,0.8343 -0.76764,1.40536 -0.70324,0.95118 -0.77751,1.53451 -0.88524,6.95307 -0.14308,7.1968 -0.71925,12.42598 -1.39782,12.68637 -0.26539,0.10184 -0.89195,-0.0831 -1.39235,-0.41098 -1.03189,-0.67612 -1.52871,-0.47728 -0.8502,0.34027 0.3716,0.44775 0.34975,0.657 -0.12317,1.17958 -0.7122,0.78697 -1.32233,3.79616 -1.32265,6.52328 -2.1e-4,1.84811 -0.0577,2.00898 -0.56705,1.5875 -0.31174,-0.25795 -0.85566,-1.10401 -1.20871,-1.88012 -0.86861,-1.9095 -0.93788,-7.95939 -0.10071,-8.79655 1.03508,-1.03509 1.91451,-1.30058 3.5137,-1.06077 0.93431,0.14011 1.57406,0.0984 1.57406,-0.10259 0,-0.18625 -0.64396,-1.65641 -1.43102,-3.26702 -0.85517,-1.74997 -1.55481,-3.79472 -1.73864,-5.08128 -0.16919,-1.18409 -0.53834,-3.18478 -0.82034,-4.44596 -0.93088,-4.16315 -0.67994,-12.8134 0.50658,-17.4625 0.19808,-0.77611 0.48872,-2.12548 0.64587,-2.99861 0.34158,-1.89775 1.61475,-5.47393 2.38629,-6.70277 1.7187,-2.73743 4.767,-6.36143 8.61874,-10.24648 3.56764,-3.59848 5.06363,-4.82196 8.26471,-6.75916 9.65415,-5.8424 17.48925,-8.05116 24.76257,-6.98069 8.92937,1.3142 14.4548,3.97477 24.14178,11.6246 4.02587,3.17924 7.67947,7.3247 10.24327,11.62224 1.51931,2.54675 1.61794,2.81011 3.23622,8.64175 1.02951,3.70995 1.68029,9.96675 1.43468,13.79357 -0.57444,8.95039 -1.14691,12.22598 -2.7667,15.8307 -0.51218,1.1398 -0.93123,2.13199 -0.93123,2.20486 0,0.0729 0.85487,0.13249 1.89971,0.13249 1.6664,0 1.97504,0.11497 2.51309,0.93615 0.93906,1.43319 0.22265,7.02853 -1.39016,10.85743 -0.65949,1.56569 -1.30047,3.24358 -1.42438,3.72865 -0.53937,2.11131 -2.77931,6.70277 -3.26996,6.70277 -0.40673,0 -0.47424,-0.29244 -0.3054,-1.32291 z m 3.92392,-13.75834 c -0.35058,-2.35015 -0.76289,-3.00448 -1.08485,-1.72167 -0.16483,0.65671 -0.0547,1.41534 0.31946,2.19987 0.79275,1.66241 1.05981,1.49555 0.76539,-0.4782 z m -50.45476,-6.43502 c 0.12261,-0.38632 0.1332,-0.84759 0.0235,-1.02503 -0.31586,-0.51108 -1.95698,0.41836 -1.96006,1.11006 -0.004,0.90028 1.6468,0.82779 1.93652,-0.085 z m -11.22858,-1.61801 c 0.11746,-0.30609 -0.0278,-0.79784 -0.32269,-1.09278 -0.44189,-0.44188 -0.67945,-0.45961 -1.35001,-0.10074 l -0.81376,0.43551 0.81168,0.65727 c 0.99174,0.80305 1.39595,0.82737 1.67478,0.10074 z m 35.63656,-0.69247 c 0.0663,-0.20188 -0.11053,-0.67813 -0.39299,-1.05834 -0.50642,-0.68165 -0.52493,-0.68006 -1.32767,0.11408 -0.69647,0.689 -0.73764,0.85495 -0.28493,1.14855 0.64617,0.41907 1.84078,0.29738 2.00559,-0.20429 z m 7.6958,-0.33851 c 0,-0.89421 -1.40116,-1.17083 -1.72014,-0.3396 -0.31395,0.81816 0.0705,1.28024 0.95968,1.15352 0.48915,-0.0697 0.76046,-0.36009 0.76046,-0.81392 z m -35.88681,0.2332 c 0.34465,-0.21873 0.28956,-0.42972 -0.2365,-0.90581 -0.65619,-0.59383 -0.70174,-0.59091 -1.05426,0.0678 -0.5414,1.01161 0.22907,1.51183 1.29076,0.83802 z m 24.54534,-1.28174 c 0.25738,-0.6707 -0.46767,-0.70483 -1.345,-0.0633 -0.83817,0.61288 -0.40984,1.43075 0.49554,0.94621 0.35345,-0.18916 0.73571,-0.58646 0.84946,-0.8829 z m -19.87937,0.32216 c 0,-0.0856 -0.15875,-0.15557 -0.35277,-0.15557 -0.19403,0 -0.35278,0.16812 -0.35278,0.3736 0,0.20548 0.15875,0.27549 0.35278,0.15557 0.19402,-0.11992 0.35277,-0.28804 0.35277,-0.3736 z m -29.24181,22.95141 c -1.13643,-2.6273 -2.46581,-6.52639 -2.22516,-6.52639 0.14591,0 0.76409,0.45559 1.37374,1.01241 1.18274,1.08027 1.69742,2.98877 1.44195,5.34694 l -0.13275,1.22537 z m 45.38268,-5.1569 c -0.63901,-0.35761 -1.08153,-1.87793 -0.8025,-2.75707 0.20294,-0.63941 1.58455,-1.43464 2.49249,-1.43464 0.65278,0 3.33581,2.40795 3.33581,2.99381 0,0.3877 -1.25456,0.83962 -3.74226,1.34805 -0.409,0.0836 -0.98659,0.016 -1.28354,-0.15015 z m -45.97484,-1.41638 c -0.96582,-1.86769 -0.28802,-5.80646 0.87546,-5.08739 0.47688,0.29473 0.51818,5.71497 0.0458,6.00694 -0.18577,0.11481 -0.60031,-0.29899 -0.92122,-0.91955 z m 27.8629,0.77263 c -2.39349,-0.5722 -2.51416,-1.34162 -0.44544,-2.8402 2.21868,-1.6072 3.72107,-1.39545 4.33611,0.61114 0.18243,0.59516 0.007,1.00804 -0.71389,1.6757 -0.99509,0.92222 -1.36461,0.98658 -3.17678,0.55336 z m -4.02615,-33.53408 c 0,-0.19402 0.14938,-0.35277 0.33196,-0.35277 0.18257,0 0.43007,0.15875 0.54999,0.35277 0.11991,0.19403 -0.0295,0.35278 -0.33196,0.35278 -0.30249,0 -0.54999,-0.15875 -0.54999,-0.35278 z m 2.64583,0 c -0.11991,-0.19402 0.10884,-0.35277 0.50835,-0.35277 0.39951,0 0.72638,0.15875 0.72638,0.35277 0,0.19403 -0.22876,0.35278 -0.50835,0.35278 -0.27959,0 -0.60646,-0.15875 -0.72638,-0.35278 z m -4.61242,-1.36852 c 0.10544,-0.17061 0.52075,-0.39625 0.92292,-0.50142 0.60038,-0.157 0.65675,-0.10149 0.31508,0.3102 -0.44606,0.53746 -1.55816,0.70924 -1.238,0.19122 z m 6.5527,-4.98148 c 0,-0.19402 0.15875,-0.35277 0.35278,-0.35277 0.19403,0 0.35278,0.15875 0.35278,0.35277 0,0.19403 -0.15875,0.35278 -0.35278,0.35278 -0.19403,0 -0.35278,-0.15875 -0.35278,-0.35278 z m 2.29306,-5.64444 c -0.11992,-0.19403 -0.0499,-0.35278 0.15557,-0.35278 0.20547,0 0.37359,0.15875 0.37359,0.35278 0,0.19403 -0.07,0.35278 -0.15556,0.35278 -0.0856,0 -0.25369,-0.15875 -0.3736,-0.35278 z"
       style="fill:#5a5a5a;stroke-width:0.35277778" />
    <path
       inkscape:connector-curvature="0"
       id="path900"
       d="m 510.13606,290.86039 c 0,-0.19403 0.15875,-0.35278 0.35277,-0.35278 0.19403,0 0.35278,0.15875 0.35278,0.35278 0,0.19403 -0.15875,0.35278 -0.35278,0.35278 -0.19402,0 -0.35277,-0.15875 -0.35277,-0.35278 z M 344.82873,282.8347 c -1.12967,-2.3768 -1.55489,-5.28532 -0.80713,-5.52086 0.2669,-0.0841 0.92185,-0.24851 1.45542,-0.36543 l 0.97014,-0.21257 v 4.06366 c 0,2.26178 -0.14507,4.06367 -0.32716,4.06367 -0.17994,0 -0.76101,-0.91281 -1.29127,-2.02847 z m 79.37091,-42.48926 c -0.32027,-0.61933 -1.32169,-1.92902 -2.22538,-2.91042 -0.9037,-0.98139 -1.87604,-2.08815 -2.16078,-2.45947 -0.47996,-0.6259 -0.46626,-0.64741 0.18785,-0.29505 0.38806,0.20903 1.45912,1.105 2.38014,1.99103 1.78368,1.71593 2.901,2.18969 4.32264,1.83288 0.93359,-0.23431 1.20892,0.26783 0.40831,0.7447 -0.2605,0.15516 -0.75501,0.71868 -1.09891,1.25225 -0.80375,1.24706 -1.1016,1.22146 -1.81387,-0.15592 z m 7.79576,-5.92949 c 0.1713,-0.29105 1.15872,-1.48167 2.19427,-2.64584 1.03555,-1.16416 1.89466,-2.27541 1.90913,-2.46944 0.0606,-0.81274 2.49511,-5.05043 3.30686,-5.75623 0.48422,-0.42102 0.88039,-0.89847 0.88039,-1.06099 0,-0.16253 0.41465,-0.51741 0.92144,-0.78864 1.2535,-0.67085 5.83479,-5.94048 8.46868,-9.74109 2.273,-3.27986 3.40569,-5.86319 3.8214,-8.71552 0.45868,-3.14715 1.0366,-3.52267 2.04612,-1.32952 0.68629,1.49094 0.85283,5.50899 0.24393,5.88531 -0.21671,0.13393 -0.277,0.66983 -0.14366,1.27693 0.17198,0.78298 0.0139,1.37352 -0.62824,2.34766 -0.4719,0.71584 -2.08706,3.94507 -3.58924,7.17606 -1.50218,3.23099 -3.07549,6.18376 -3.49625,6.56169 -0.42075,0.37794 -2.27313,1.27867 -4.1164,2.00162 -4.20591,1.6496 -5.97439,2.65932 -8.64305,4.93479 -3.09435,2.63844 -3.56252,2.98097 -3.17538,2.32321 z m -16.39325,-2.15639 c -0.47927,-0.19128 -1.43177,-0.77589 -2.11667,-1.29914 -0.68489,-0.52325 -1.66572,-1.19013 -2.17961,-1.48195 -0.51389,-0.29182 -1.62514,-0.99809 -2.46945,-1.5695 -0.8443,-0.5714 -2.56696,-1.41447 -3.82814,-1.87348 -3.0414,-1.10694 -5.01303,-3.02727 -6.56281,-6.39206 -0.65907,-1.43092 -1.1983,-2.97259 -1.1983,-3.42592 0,-0.45333 -0.3019,-2.14008 -0.67089,-3.74832 -1.59115,-6.93515 -1.50954,-10.74125 0.28373,-13.23174 1.10984,-1.54137 1.53508,-1.06992 1.97874,2.19377 0.13188,0.97014 0.77542,2.87514 1.4301,4.23334 0.65468,1.35819 1.35318,3.21741 1.55222,4.13159 0.67942,3.12046 4.14944,9.57312 6.88434,12.80174 3.23456,3.81848 4.16696,5.2934 3.89266,6.15762 -0.16146,0.50873 0.27313,0.99536 1.92161,2.1517 1.17165,0.82187 2.13026,1.55067 2.13026,1.61957 0,0.1537 0.019,0.15855 -1.04779,-0.26722 z m 42.12562,-3.96812 c 0.29257,-1.83128 0.58123,-2.11864 1.838,-1.82971 1.17567,0.27028 4.78233,2.34817 4.9441,2.84842 0.0663,0.2051 -1.32341,0.36307 -3.45218,0.39241 l -3.5632,0.0491 z m -73.18061,0.56384 c 0,-0.54885 4.53723,-6.38279 5.26843,-6.77411 0.37532,-0.20088 1.33178,-0.36522 2.12545,-0.36522 1.24897,0 1.493,0.13047 1.81456,0.97013 0.63307,1.65308 -0.0748,2.18557 -4.36129,3.28065 -1.03014,0.26318 -2.2915,0.96794 -3.26319,1.82326 -0.87117,0.76684 -1.58396,1.24622 -1.58396,1.06529 z m 36.95348,-9.51388 c -0.53358,-0.078 -0.97014,-0.30848 -0.97014,-0.51225 0,-0.22143 0.31935,-0.27218 0.79375,-0.12613 0.80831,0.24884 2.33585,0.25332 6.04381,0.0177 1.14129,-0.0725 1.93504,-0.004 1.76389,0.15174 -0.35622,0.32464 -6.17283,0.68207 -7.63131,0.46894 z m 1.5875,-1.38473 c -1.01861,-0.21861 -1.01861,-0.69371 0,-0.95026 0.43656,-0.10995 0.9525,-0.54491 1.14653,-0.96657 0.31322,-0.6807 0.65931,-0.77449 3.0868,-0.83652 2.07429,-0.053 2.73403,0.0433 2.73403,0.39915 0,0.25797 0.19844,0.46923 0.44097,0.46946 0.24254,2.4e-4 -0.0203,0.39711 -0.58404,0.88195 -0.56375,0.48483 -1.45441,0.88151 -1.97923,0.88151 -0.52483,0 -1.65107,0.0656 -2.50277,0.14581 -0.8517,0.0802 -1.90573,0.0692 -2.34229,-0.0245 z m -0.85994,-4.36734 c -1.27512,-0.67349 -2.40314,-1.90477 -2.40338,-2.62341 -7e-5,-0.2339 2.12706,-0.36247 5.99704,-0.36247 6.23472,0 6.9334,0.18642 5.21348,1.3911 -0.64448,0.45142 -0.67588,0.54917 -0.17639,0.54917 0.33421,0 0.60766,0.15875 0.60766,0.35278 0,0.19403 -0.21869,0.35278 -0.48597,0.35278 -0.26728,0 -0.6836,0.23812 -0.92514,0.52917 -0.69328,0.83534 -6.13666,0.70382 -7.8273,-0.18912 z m 1.12452,-18.15533 c -0.24154,-0.29104 -0.82647,-0.52917 -1.29983,-0.52917 -1.07605,0 -4.34461,-1.05015 -4.34461,-1.39587 0,-0.66885 2.96104,-1.02674 7.40128,-0.89457 4.02305,0.11975 4.82518,0.23691 5.20823,0.76076 0.74326,1.01647 0.30658,1.3533 -1.75452,1.3533 -1.36344,0 -2.16032,0.18638 -2.63946,0.61736 -0.84183,0.7572 -1.98337,0.79635 -2.57109,0.0882 z m 0,-1.25554 c 0,-0.20548 -0.15875,-0.27549 -0.35278,-0.15557 -0.45204,0.27938 -0.45204,0.52917 0,0.52917 0.19403,0 0.35278,-0.16812 0.35278,-0.3736 z m 14.12904,-7.55431 c -0.57472,-0.30758 -2.37167,-0.39638 -6.14765,-0.30378 -4.82418,0.1183 -8.94614,-0.0934 -8.59797,-0.44154 0.0738,-0.0738 1.7905,-0.29027 3.81494,-0.48109 2.02445,-0.19081 4.31581,-0.43853 5.09192,-0.55047 0.77611,-0.11195 2.47337,-0.0142 3.77169,0.21731 2.35367,0.41963 2.36417,0.41787 3.5905,-0.60208 1.31973,-1.09763 1.60931,-2.25146 0.74508,-2.96871 -0.43828,-0.36374 -0.66165,-0.33076 -1.22737,0.18121 -0.6362,0.57576 -0.70954,0.57907 -0.91586,0.0414 -0.12336,-0.32146 0.0285,-1.09713 0.33739,-1.72372 0.30892,-0.62658 0.56529,-0.87842 0.5697,-0.55963 0.0107,0.77053 0.97283,1.11238 1.33074,0.47283 0.22241,-0.39742 0.66731,-0.44501 2.07697,-0.22218 1.3949,0.22051 2.03796,0.55206 2.89096,1.49055 0.60336,0.66383 1.10167,1.47179 1.10736,1.79547 0.006,0.32368 0.11373,0.85794 0.24009,1.18724 0.18272,0.47616 0.0846,0.55265 -0.47936,0.37366 -0.43708,-0.13872 -0.88012,-0.019 -1.15489,0.31207 -0.24518,0.29542 -0.8311,0.53713 -1.30205,0.53713 -0.47095,0 -1.35504,0.25793 -1.96467,0.57318 -1.84064,0.95184 -2.90102,1.14023 -3.77752,0.67114 z m -27.45493,-1.24564 c -0.63528,-0.38732 -1.55853,-0.70423 -2.05166,-0.70423 -1.31408,0 -2.14887,-0.56221 -2.41618,-1.62723 -0.1827,-0.72793 -0.0314,-1.15381 0.66992,-1.88585 0.49825,-0.52006 0.82048,-1.031 0.71606,-1.13541 -0.10442,-0.10442 0.0521,-0.39067 0.34784,-0.6361 0.42936,-0.35634 0.6443,-0.35777 1.06686,-0.007 0.40581,0.33679 0.64519,0.34287 1.02692,0.0261 0.36589,-0.30367 0.56267,-0.30808 0.74277,-0.0166 0.16485,0.26672 0.52096,0.1372 1.08835,-0.39584 1.01319,-0.95184 1.37558,-0.7401 0.82006,0.47915 -0.23539,0.51661 -0.98031,1.11533 -1.7771,1.42832 -1.67587,0.6583 -1.73581,1.34044 -0.21942,2.49705 0.96328,0.73473 1.62834,0.90096 4.05231,1.01285 1.59494,0.0736 3.00781,0.24179 3.13971,0.37369 0.28987,0.28986 0.19066,0.30348 -2.6705,0.36642 -1.45922,0.0321 -2.31583,0.20649 -2.41065,0.49076 -0.20712,0.62095 -0.7904,0.54798 -2.12529,-0.2659 z m 12.09117,-5.06796 -1.05833,-0.45135 1.23472,-0.28411 c 1.9238,-0.44267 3.52778,-0.0293 3.52778,0.90905 0,0.46092 -2.48997,0.34423 -3.70417,-0.17359 z m 14.1738,0.25188 c -0.12721,-0.12721 -0.82835,-0.32834 -1.5581,-0.44695 l -1.32681,-0.21567 v -1.8461 c 0,-1.24169 0.14437,-1.8461 0.44097,-1.8461 0.24253,0 0.44097,0.20638 0.44097,0.45861 0,0.86954 0.75395,1.30288 1.55335,0.89281 0.6087,-0.31225 0.66161,-0.29683 0.29874,0.0871 -0.63725,0.67417 -0.5415,1.99798 0.17345,2.39809 0.33793,0.18912 0.52314,0.43513 0.41157,0.5467 -0.11157,0.11156 -0.30693,0.0988 -0.43414,-0.0284 z m -6.3245,-0.93267 c -0.56749,-0.22425 -0.97013,-0.65251 -0.97013,-1.03188 0,-0.35669 -0.23813,-0.7399 -0.52917,-0.85158 -0.29104,-0.11169 -0.52917,-0.50358 -0.52917,-0.87088 0,-0.90205 0.57581,-0.84928 0.81749,0.0749 0.10836,0.41433 0.39951,0.6715 0.65851,0.58165 0.49839,-0.1729 0.50581,-0.78564 0.0331,-2.73549 -0.26216,-1.08143 -0.45107,-1.24879 -1.52159,-1.34807 -1.64263,-0.15233 -2.02166,-0.59084 -1.24882,-1.4448 0.97684,-1.07939 3.58402,-1.79324 6.54945,-1.79324 2.57239,0 2.72747,0.0466 3.46162,1.03956 0.86976,1.17642 0.80917,1.25536 -1.22135,1.5912 -1.28788,0.21301 -1.4958,0.15325 -1.69947,-0.48848 -0.26797,-0.84427 -0.60263,-0.88528 -2.30119,-0.28203 -1.76396,0.62648 -2.11363,0.91218 -1.87561,1.53246 0.16151,0.42088 0.50548,0.49322 1.4839,0.31205 l 1.27365,-0.23584 -0.98111,1.03032 c -0.63004,0.66165 -0.90056,1.24023 -0.756,1.61693 0.12381,0.32263 0.32811,0.58661 0.45402,0.58661 0.40388,0 1.18171,2.11793 0.97533,2.65572 -0.22733,0.59244 -0.69361,0.60612 -2.07349,0.0609 z m -14.72847,-0.24715 c 0,-0.19403 0.07,-0.35278 0.15557,-0.35278 0.0856,0 0.25368,0.15875 0.3736,0.35278 0.11991,0.19403 0.0499,0.35278 -0.15557,0.35278 -0.20548,0 -0.3736,-0.15875 -0.3736,-0.35278 z m 4.58611,-1.94028 c 0,-0.29104 0.25757,-0.52916 0.57236,-0.52916 0.46878,0 0.49288,0.0958 0.1332,0.52916 -0.24154,0.29105 -0.49911,0.52917 -0.57236,0.52917 -0.0733,0 -0.1332,-0.23812 -0.1332,-0.52917 z m 11.99445,-1.03751 c 0,-0.49652 0.15875,-0.90276 0.35278,-0.90276 0.45883,0 0.45883,1.30392 0,1.5875 -0.20009,0.12365 -0.35278,-0.17273 -0.35278,-0.68474 z m -12.79458,-3.50555 c 0.11347,-0.59357 -0.0785,-1.00624 -0.65657,-1.41111 -1.03406,-0.72428 -1.67252,-0.723 -2.47691,0.005 -0.59199,0.53574 -0.6551,0.53208 -0.87885,-0.051 -0.63635,-1.6583 2.36855,-1.95294 5.19762,-0.50966 1.29264,0.65946 2.0396,2.07646 0.85495,1.62187 -0.30789,-0.11815 -0.67653,0.0844 -0.89436,0.49142 -0.53278,0.99551 -1.34435,0.89177 -1.14588,-0.14648 z m 44.06744,-5.7797 c -0.17858,-0.28894 0.40841,-6.26347 0.70146,-7.13974 0.28658,-0.85688 1.88847,2.11621 1.89054,3.50882 10e-4,0.74132 -0.36109,1.73941 -0.92812,2.55764 -0.91848,1.32537 -1.34003,1.59729 -1.66388,1.07328 z m -30.56731,-1.98693 c 0,-1.33982 1.3995,-1.94493 2.63139,-1.13777 1.49944,0.98247 1.1964,1.46027 -1.16573,1.838 -1.40918,0.22533 -1.46566,0.19835 -1.46566,-0.70023 z m -45.68298,-0.55877 c -0.25463,-1.15933 0.0386,-2.47737 0.5512,-2.47737 0.18095,0 0.329,0.79375 0.329,1.76389 0,1.94302 -0.51794,2.36286 -0.8802,0.71348 z m 28.79265,0.0261 c -0.63061,-0.39941 -0.1971,-1.09237 0.68338,-1.09237 0.3766,0 0.68473,0.0664 0.68473,0.14754 0,0.0811 0.0964,0.39864 0.21413,0.70555 0.23902,0.62287 -0.74232,0.77128 -1.58224,0.23928 z m 51.30915,-4.53195 c -0.1123,-1.11566 -0.3675,-2.72659 -0.56712,-3.57985 -0.32584,-1.39276 -0.28324,-1.63624 0.41667,-2.38125 0.42879,-0.45643 1.09322,-0.82987 1.47651,-0.82987 0.65812,0 0.68432,0.17172 0.47093,3.0868 -0.24326,3.32311 -0.78211,5.73264 -1.282,5.73264 -0.17095,0 -0.40269,-0.91281 -0.51499,-2.02847 z m -84.28329,0.45338 c -0.47401,-1.23522 -0.65555,-5.74361 -0.26097,-6.48088 0.50786,-0.94894 1.48888,-0.98078 2.30866,-0.0749 0.59738,0.6601 0.59132,0.74001 -0.14654,1.9339 -0.42332,0.68495 -0.86008,2.12135 -0.97059,3.19201 -0.19782,1.91675 -0.54124,2.44445 -0.93056,1.4299 z m 52.33392,-5.12881 c -0.5731,-0.14436 -0.84543,-0.43105 -0.77769,-0.81869 0.0635,-0.36328 -0.22807,-0.7229 -0.74563,-0.91967 -0.87002,-0.33078 -1.35078,-1.06804 -1.51121,-2.31746 -0.42775,-3.33136 -0.91987,-5.27426 -1.53352,-6.0544 -1.13392,-1.44153 -0.94534,-2.46215 0.5993,-3.24358 2.92582,-1.48017 8.59417,-2.0728 12.78819,-1.33703 2.26775,0.39784 2.75931,0.39106 3.43989,-0.0474 0.73911,-0.47621 0.89176,-0.42334 2.20588,0.76389 0.8651,0.78156 1.76968,1.27549 2.33595,1.27549 0.78144,0 0.85631,0.0817 0.48495,0.52917 -0.62317,0.75087 -2.24583,0.65542 -2.99861,-0.17639 -0.75876,-0.83842 -1.23472,-0.90642 -1.23472,-0.17639 0,0.29104 -0.28218,0.52917 -0.62706,0.52917 -0.34489,0 -0.9402,0.2156 -1.32292,0.47911 -0.38272,0.26351 -1.32298,0.59418 -2.08946,0.7348 -0.76649,0.14063 -1.56024,0.47228 -1.76389,0.73699 -0.20366,0.26472 -1.56091,0.7922 -3.01612,1.17218 -2.6455,0.69078 -5.99722,2.307 -5.99722,2.89189 0,0.17061 0.33067,0.48717 0.73482,0.70347 0.69193,0.37031 0.70021,0.43151 0.14183,1.04851 -0.70211,0.77583 -0.36716,1.53883 0.56815,1.29424 0.56446,-0.14761 0.6049,-0.0702 0.28029,0.53631 -0.5207,0.97292 0.1871,1.74002 0.83122,0.90087 0.66262,-0.86324 2.84533,-1.16183 3.42116,-0.46801 0.25529,0.30761 1.08206,0.65809 1.83728,0.77885 0.75521,0.12077 1.47063,0.37737 1.58982,0.57023 0.13871,0.22443 -0.27682,0.26321 -1.15434,0.10772 -2.7492,-0.48713 -4.77231,-0.42179 -5.19897,0.16793 -0.27528,0.3805 -0.68853,0.48907 -1.28737,0.33823 z m 28.46265,-2.20374 c -0.26102,-0.63059 -0.65828,-2.09903 -0.8828,-3.26319 -0.49727,-2.5785 -1.23048,-12.27894 -1.14198,-15.10855 0.0553,-1.76938 -0.0313,-2.08075 -0.62155,-2.23512 -0.95112,-0.24872 -1.75355,-2.46084 -1.4391,-3.96723 0.29581,-1.41707 -0.20488,-2.72412 -1.13689,-2.96785 -0.70452,-0.18423 -0.89904,-1.10985 -0.30978,-1.47403 0.19403,-0.11992 0.34841,-0.80397 0.34307,-1.52013 -0.008,-1.07607 -0.22228,-1.45519 -1.23426,-2.18404 -1.55103,-1.11708 -2.82151,-3.13118 -2.3025,-3.65019 0.77096,-0.77097 0.50306,-0.90356 -3.07335,-1.52103 -0.63347,-0.10937 -1.43758,-0.56222 -1.78691,-1.00632 -0.45468,-0.57804 -1.00114,-0.80746 -1.92328,-0.80746 -0.70848,0 -1.25374,0.12376 -1.2117,0.27501 0.042,0.15126 -0.2955,0.7839 -0.75008,1.40586 -0.61465,0.84098 -1.02156,1.08406 -1.5875,0.94832 -0.41854,-0.10039 -1.39599,0.0558 -2.1721,0.34697 -1.66647,0.62532 -3.00945,0.83117 -6.35,0.97335 -1.35819,0.0578 -2.94569,0.21982 -3.52778,0.36004 -0.89798,0.21631 -1.28384,0.0614 -2.5468,-1.02246 -1.14958,-0.98657 -1.63149,-1.20336 -2.11666,-0.95219 -0.34551,0.17887 -1.18383,0.25933 -1.86292,0.1788 -1.97558,-0.23426 -4.33536,-0.16311 -4.55766,0.13742 -0.30106,0.40701 -2.4979,0.48295 -2.4979,0.0864 0,-0.46582 -1.31402,-0.4283 -1.60708,0.0459 -0.14155,0.22904 -0.70929,0.29597 -1.40442,0.16556 -0.66532,-0.12481 -1.2634,-0.0626 -1.39153,0.14471 -0.2936,0.47505 -2.05324,0.469 -2.53094,-0.009 -0.43309,-0.43308 -2.23825,-0.0721 -2.23825,0.44761 0,0.21339 -0.58933,0.26403 -1.49931,0.12883 -0.82462,-0.12252 -2.09462,-0.21473 -2.82222,-0.20492 -1.09887,0.0148 -1.32292,-0.1031 -1.32292,-0.69624 0,-0.40605 -0.23303,-0.71408 -0.54023,-0.71408 -0.29714,0 -0.63797,-0.25468 -0.75742,-0.56596 -0.17053,-0.44439 -0.51763,-0.51792 -1.61586,-0.3423 -0.84146,0.13455 -1.58762,0.0668 -1.87296,-0.16997 -0.637,-0.52866 -1.07894,-0.19816 -1.3153,0.98363 -0.12626,0.63128 -0.54921,1.13228 -1.19209,1.41208 -2.57801,1.12202 -3.10479,1.66477 -3.30841,3.40872 -0.18655,1.59768 -0.69592,2.31219 -1.65676,2.32396 -0.64965,0.008 -0.53659,1.32794 0.14649,1.71021 0.53503,0.29941 0.51928,0.41542 -0.17639,1.29983 -0.9025,1.14734 -0.95605,1.68834 -0.22698,2.29342 0.47417,0.39352 0.45358,0.50389 -0.17639,0.94514 -0.74445,0.52143 -0.97002,2.02314 -0.36048,2.39985 0.53083,0.32807 0.42379,0.88195 -0.17044,0.88195 -0.28777,0 -0.93128,0.80527 -1.43002,1.78948 -0.75939,1.49858 -0.84979,1.97171 -0.5561,2.91042 0.38503,1.23068 0.36298,14.14505 -0.0248,14.53258 -0.46583,0.46552 -1.02513,-0.26212 -2.39783,-3.11955 -0.87142,-1.81394 -1.52036,-3.79988 -1.74926,-5.35321 -0.20014,-1.35819 -0.52572,-3.18382 -0.72349,-4.05694 -0.76766,-3.389 -0.19136,-16.34622 0.80804,-18.16806 0.21288,-0.38805 0.4209,-1.1818 0.46226,-1.76389 0.14927,-2.1006 1.99202,-6.37427 3.8901,-9.02188 2.86943,-4.0025 9.71594,-11.049333 12.50266,-12.868453 1.32229,-0.86316 2.49335,-1.56939 2.60237,-1.56939 0.10902,0 0.87111,-0.48744 1.69353,-1.083196 1.58092,-1.14521 8.49305,-4.56125 9.2294,-4.56125 0.23855,0 1.72486,-0.38645 3.30291,-0.85878 1.57804,-0.47233 3.31258,-0.847 3.85453,-0.83261 0.54194,0.0144 1.47495,-0.0822 2.07334,-0.21472 1.09664,-0.24281 7.34055,0.71342 11.10401,1.70054 7.55238,1.98092 22.36176,12.703949 25.2447,18.278949 0.27777,0.53714 0.66747,0.97663 0.866,0.97663 0.19853,0 0.63102,0.59734 0.96108,1.32742 0.33006,0.73009 0.93904,1.80165 1.35329,2.38125 1.18372,1.65624 2.98187,8.72318 3.72401,14.63577 0.70963,5.65363 -0.45536,18.81617 -1.82659,20.6375 -0.14607,0.19403 -0.45315,0.93539 -0.68239,1.64748 -0.22924,0.71208 -0.64681,1.48558 -0.92792,1.71888 -1.01194,0.83984 -0.54392,1.12876 1.42916,0.88224 1.19322,-0.14909 1.94027,-0.10973 1.94027,0.10222 0,0.31116 -2.84625,2.17557 -3.32128,2.17557 -0.10836,0 -0.41059,-0.51594 -0.67162,-1.14653 z M 440.99161,115.8826 c 0,-0.19403 -0.15875,-0.35278 -0.35278,-0.35278 -0.19403,0 -0.35278,0.15875 -0.35278,0.35278 0,0.19403 0.15875,0.35278 0.35278,0.35278 0.19403,0 0.35278,-0.15875 0.35278,-0.35278 z m -54.85695,37.29506 c -1.34012,-0.73309 -1.3657,-0.77748 -0.50844,-0.88236 1.18018,-0.14438 2.89713,0.51846 2.71993,1.05006 -0.22787,0.68363 -0.72398,0.646 -2.21149,-0.1677 z m 25.97327,-0.20929 c 0.14755,-0.44265 0.66146,-0.54543 0.66146,-0.1323 0,0.14552 -0.1786,0.32412 -0.39688,0.39688 -0.21828,0.0728 -0.33734,-0.0463 -0.26458,-0.26458 z m -7.31126,-1.61688 c 0.29959,-1.19367 -0.53993,-2.10849 -1.67378,-1.82391 -1.16584,0.29261 -1.24705,1.37537 -0.14309,1.90779 0.69733,0.33631 0.59554,0.38571 -0.83784,0.40669 -2.49279,0.0365 -3.91208,-0.32856 -3.67541,-0.94531 0.12586,-0.32797 0.0351,-0.45323 -0.24525,-0.33866 -0.24473,0.1 -0.72278,0.29341 -1.06233,0.4298 -0.91253,0.36654 -0.78404,-0.60297 0.22409,-1.69075 1.74831,-1.88646 7.27244,-3.95475 7.27244,-2.72287 0,0.19403 0.26806,0.35278 0.59568,0.35278 0.50025,0 0.47126,-0.11593 -0.18095,-0.72356 -0.42715,-0.39795 -0.91212,-0.63982 -1.07771,-0.53748 -0.16558,0.10233 -0.585,-0.12769 -0.93205,-0.51117 -0.34704,-0.38348 -0.84451,-0.69724 -1.10548,-0.69724 -0.26097,0 -0.47206,-0.11906 -0.46909,-0.26458 0.0146,-0.71278 0.67886,-1.09982 2.28765,-1.33283 0.97014,-0.14052 1.92264,-0.37413 2.11667,-0.51914 0.3896,-0.29117 2.79571,-0.61493 6.9689,-0.9377 5.80556,-0.44903 8.60971,1.76105 5.70125,4.4934 -0.46865,0.44028 -0.85209,1.16971 -0.85209,1.62095 0,0.7191 -0.17069,0.82046 -1.38172,0.82046 -0.79102,0 -1.44516,0.18851 -1.53013,0.44097 -0.11571,0.34378 -0.27768,0.33426 -0.73495,-0.0432 -0.7238,-0.59747 -0.73624,-0.41268 -0.0595,0.88482 0.94376,1.80959 0.81947,1.89112 -2.90825,1.90777 -1.89177,0.008 -4.1267,0.14816 -4.96651,0.31046 -1.4617,0.28249 -1.51854,0.26167 -1.33051,-0.48749 z m 8.2814,-0.9023 c 0.39307,-0.004 0.1972,-0.33709 -0.62314,-1.06014 -1.34488,-1.18538 -2.15499,-0.95084 -2.15499,0.6239 0,0.80064 0.10266,0.86231 1.10243,0.66236 0.60634,-0.12127 1.3604,-0.22302 1.6757,-0.22612 z m -11.90535,-1.9924 c 0.43903,-0.5322 0.41016,-0.54749 -0.30958,-0.16398 -0.8209,0.43741 -1.02303,0.7509 -0.48417,0.7509 0.17027,0 0.52746,-0.26411 0.79375,-0.58692 z m 40.78903,3.30144 c -1.48442,-0.32185 -1.6757,-0.46968 -1.6757,-1.29511 0,-0.51248 -0.22533,-1.23993 -0.50073,-1.61656 -0.49055,-0.67085 -0.51927,-0.66738 -1.41111,0.17045 -0.50071,0.47039 -0.91038,1.22142 -0.91038,1.66897 0,0.57774 -0.26054,0.87913 -0.89837,1.03921 -1.15726,0.29046 -1.42607,-0.005 -0.95206,-1.04491 0.70189,-1.54048 3.51154,-3.49278 5.84737,-4.06308 3.54481,-0.86546 6.43644,-0.72447 8.79355,0.42876 2.53865,1.24204 4.38718,3.40886 2.90812,3.40886 -0.29104,0 -0.52916,0.2589 -0.52916,0.57533 0,0.46851 -0.24562,0.53472 -1.32292,0.35666 -0.7276,-0.12027 -1.8706,-0.22041 -2.54,-0.22255 -0.94662,-0.003 -1.12301,-0.098 -0.79375,-0.42721 1.08869,-1.08869 -0.26316,-2.30415 -1.87929,-1.6897 l -0.93771,0.35652 0.71036,1.20398 c 0.60833,1.03104 0.63421,1.2332 0.18021,1.40742 -0.70393,0.27012 -2.04638,0.18572 -4.08843,-0.25704 z m 0.97168,-3.42256 c 0.28021,-0.45339 -0.7107,-0.84486 -1.43501,-0.56691 -0.70689,0.27125 -0.31759,0.92217 0.55152,0.92217 0.36516,0 0.76273,-0.15987 0.88349,-0.35526 z m 6.52485,-0.48894 c 0,-0.0763 -0.24637,-0.23318 -0.54749,-0.34873 -0.31395,-0.12047 -0.45555,-0.0613 -0.33196,0.13864 0.20717,0.33521 0.87945,0.49581 0.87945,0.21009 z m -33.51389,2.64924 c 0,-0.3578 1.46493,-0.81047 1.73826,-0.53714 0.22814,0.22814 -0.70711,0.83614 -1.29729,0.84337 -0.24253,0.003 -0.44097,-0.13483 -0.44097,-0.30623 z"
       style="fill:#3c3c3c;stroke-width:0.35277778" />
  </g>
</svg>
